# xmcd CD database file
#
# Track frame offsets:
#	150
#	16860
#	51310
#	85285
#	111855
#	136167
#	169207
#	197142
#	224620
#	252372
#	267690
#	294705
#
# Disc length: 4341 seconds
#
# Revision: 2
# Processed by: cddbd v1.5.2PL0 Copyright (c) Steve Scherf et al.
# Submitted via: CDex 1.51
#
DISCID=bd10f30c
DTITLE=Kenny Garrett - Pursuance: The Music Of John Coltrane
DYEAR=1996
DGENRE=Jazz
TTITLE0=Countdown
TTITLE1=Equinox
TTITLE2=Liberia
TTITLE3=Dear Lord
TTITLE4=Lonnie's Lament
TTITLE5=After The Rain
TTITLE6=Like Sonny
TTITLE7=Pursuance
TTITLE8=Alabama
TTITLE9=Giant Steps
TTITLE10=Latifa
TTITLE11=Miles Mode
EXTD=YEAR: 1996
EXTT0=
EXTT1=
EXTT2=
EXTT3=
EXTT4=
EXTT5=
EXTT6=
EXTT7=
EXTT8=
EXTT9=
EXTT10=
EXTT11=
PLAYORDER=
